<?xml version="1.0" encoding="UTF-8" standalone="no"?>
<!-- Created with Inkscape (http://www.inkscape.org/) -->

<svg
   width="91.866959mm"
   height="80.897224mm"
   viewBox="0 0 91.866959 80.897224"
   version="1.1"
   id="svg1"
   xml:space="preserve"
   xmlns:inkscape="http://www.inkscape.org/namespaces/inkscape"
   xmlns:sodipodi="http://sodipodi.sourceforge.net/DTD/sodipodi-0.dtd"
   xmlns="http://www.w3.org/2000/svg"
   xmlns:svg="http://www.w3.org/2000/svg"><sodipodi:namedview
     id="namedview1"
     pagecolor="#505050"
     bordercolor="#eeeeee"
     borderopacity="1"
     inkscape:showpageshadow="0"
     inkscape:pageopacity="0"
     inkscape:pagecheckerboard="0"
     inkscape:deskcolor="#505050"
     inkscape:document-units="mm"><inkscape:page
       x="5.6027697e-23"
       y="0"
       width="91.866959"
       height="80.897224"
       id="page2"
       margin="0"
       bleed="0" /></sodipodi:namedview><defs
     id="defs1" /><g
     inkscape:label="Capa 1"
     inkscape:groupmode="layer"
     id="layer1"
     transform="translate(-23.102686,-114.36555)"><path
       style="fill:#fb742d"
       d="m 55.540966,186.03538 c -7.14739,-5.04056 -15.745325,-11.91473 -19.106522,-15.27593 -3.858539,-3.85854 -7.361254,-8.6501 -9.502273,-12.99869 -2.789339,-5.66539 -3.454711,-8.27866 -3.750039,-14.72842 -0.262333,-5.72918 0.107379,-9.06228 1.372707,-12.37549 0.952456,-2.49397 3.135522,-6.13332 4.851259,-8.08744 1.715736,-1.95411 5.372549,-4.60212 8.12625,-5.88445 3.642858,-1.6964 6.777184,-2.3282 11.506016,-2.31933 4.383227,0.008 7.96425,0.67635 10.998792,2.05208 2.474728,1.12193 5.511895,2.99028 6.749259,4.15189 2.249753,2.11202 2.249753,2.11202 4.499506,0 1.237364,-1.16161 4.27453,-3.02996 6.749259,-4.15189 3.034539,-1.37573 6.615559,-2.04385 10.998789,-2.05208 4.728832,-0.009 7.863162,0.62293 11.506021,2.31933 2.7537,1.28233 6.41051,3.93034 8.12625,5.88445 1.71573,1.95412 3.8988,5.59347 4.85126,8.08744 1.26532,3.31321 1.63503,6.64631 1.3727,12.37549 -0.29569,6.45783 -0.95993,9.06149 -3.76551,14.75986 -2.2571,4.58435 -5.63415,9.1316 -10.00866,13.47681 -3.631199,3.60686 -12.338581,10.495 -19.349741,15.30697 -7.011154,4.81197 -12.856121,8.72093 -12.988811,8.68656 -0.132691,-0.0344 -6.089121,-4.18659 -13.236512,-9.22716 z"
       id="path1" /></g></svg>
