<?xml version="1.0" encoding="UTF-8" standalone="no"?>
<!-- Created with Inkscape (http://www.inkscape.org/) -->

<svg
   width="91.866959mm"
   height="80.90934mm"
   viewBox="0 0 91.866959 80.90934"
   version="1.1"
   id="svg1"
   xml:space="preserve"
   xmlns:inkscape="http://www.inkscape.org/namespaces/inkscape"
   xmlns:sodipodi="http://sodipodi.sourceforge.net/DTD/sodipodi-0.dtd"
   xmlns="http://www.w3.org/2000/svg"
   xmlns:svg="http://www.w3.org/2000/svg"><sodipodi:namedview
     id="namedview1"
     pagecolor="#505050"
     bordercolor="#eeeeee"
     borderopacity="1"
     inkscape:showpageshadow="0"
     inkscape:pageopacity="0"
     inkscape:pagecheckerboard="0"
     inkscape:deskcolor="#505050"
     inkscape:document-units="mm"><inkscape:page
       x="2.2411079e-22"
       y="0"
       width="91.866959"
       height="80.90934"
       id="page2"
       margin="0"
       bleed="0" /></sodipodi:namedview><defs
     id="defs1" /><g
     inkscape:label="Capa 1"
     inkscape:groupmode="layer"
     id="layer1"
     transform="translate(-127.12099,-118.61161)"><path
       style="fill:#FFFFFF"
       d="m 160.06549,190.77161 c -6.86898,-4.77219 -15.45995,-11.62778 -19.09105,-15.23465 -4.3742,-4.34501 -7.75149,-8.89266 -10.00848,-13.47681 -2.80558,-5.69837 -3.46982,-8.30202 -3.76552,-14.75986 -0.26233,-5.72917 0.10738,-9.06227 1.37271,-12.37549 0.95245,-2.49397 3.13552,-6.13331 4.85126,-8.08743 1.71573,-1.95411 5.37255,-4.60212 8.12625,-5.88445 3.55927,-1.65747 6.82271,-2.33434 11.28816,-2.34128 3.45478,-0.005 7.93007,0.67908 9.94508,1.521 2.01501,0.84193 5.15021,2.66463 6.96711,4.05045 3.30347,2.51967 3.30347,2.51967 6.60693,0 1.81691,-1.38582 4.95211,-3.20852 6.96712,-4.05045 2.01501,-0.84192 6.49029,-1.52638 9.94508,-1.521 4.46545,0.007 7.72889,0.68381 11.28816,2.34128 2.7537,1.28233 6.41051,3.93034 8.12625,5.88445 1.71573,1.95412 3.8988,5.59346 4.85126,8.08743 1.26532,3.31322 1.63504,6.64632 1.3727,12.37549 -0.29569,6.45784 -0.95993,9.06149 -3.76551,14.75986 -2.2571,4.58436 -5.63415,9.13161 -10.00866,13.47681 -3.6312,3.60687 -12.33858,10.49501 -19.34974,15.30698 -7.01116,4.81197 -12.85612,8.71649 -12.98881,8.67671 -0.13269,-0.0398 -5.86133,-3.97685 -12.7303,-8.74904 z m 24.30133,-5.37072 c 5.60191,-3.95607 13.00626,-9.88517 16.45409,-13.17577 4.19773,-4.0063 7.41856,-8.28115 9.74893,-12.93929 2.93642,-5.86956 3.48014,-8.00433 3.48014,-13.664 0,-5.0924 -0.56024,-7.7688 -2.32652,-11.11442 -1.27959,-2.42374 -4.24302,-5.75666 -6.58542,-7.40647 -3.84553,-2.70853 -5.01097,-2.99967 -12.00741,-2.99967 -6.81499,0 -8.22006,0.32866 -11.66258,2.72801 -2.15273,1.50041 -4.81397,4.08634 -5.91385,5.7465 -1.09988,1.66016 -2.22475,3.01847 -2.49972,3.01847 -0.27497,0 -1.39985,-1.35831 -2.49973,-3.01847 -1.09988,-1.66016 -3.76111,-4.24609 -5.91385,-5.7465 -3.44251,-2.39935 -4.84759,-2.72801 -11.66258,-2.72801 -6.99643,0 -8.16187,0.29114 -12.0074,2.99967 -2.3424,1.64981 -5.30584,4.98273 -6.58542,7.40647 -1.76629,3.34562 -2.32652,6.02202 -2.32652,11.11442 0,5.65315 0.54283,7.78976 3.453,13.59122 2.14023,4.26659 5.65652,9.03489 9.24898,12.54219 3.18779,3.11223 10.52047,9.05614 16.29484,13.20869 5.77436,4.15256 11.08989,7.56804 11.81228,7.58996 0.72239,0.0219 5.89682,-3.19693 11.49874,-7.153 z"
       id="path2" /></g></svg>
