<?xml version="1.0" encoding="UTF-8" standalone="no"?>
<!-- Created with Inkscape (http://www.inkscape.org/) -->

<svg
   width="196.1604mm"
   height="173.34337mm"
   viewBox="0 0 196.1604 173.34337"
   version="1.1"
   id="svg1"
   xml:space="preserve"
   xmlns:inkscape="http://www.inkscape.org/namespaces/inkscape"
   xmlns:sodipodi="http://sodipodi.sourceforge.net/DTD/sodipodi-0.dtd"
   xmlns="http://www.w3.org/2000/svg"
   xmlns:svg="http://www.w3.org/2000/svg"><sodipodi:namedview
     id="namedview1"
     pagecolor="#505050"
     bordercolor="#eeeeee"
     borderopacity="1"
     inkscape:showpageshadow="0"
     inkscape:pageopacity="0"
     inkscape:pagecheckerboard="0"
     inkscape:deskcolor="#505050"
     inkscape:document-units="mm"><inkscape:page
       x="0"
       y="-3.8275372e-14"
       width="196.1604"
       height="173.34335"
       id="page2"
       margin="0"
       bleed="0" /></sodipodi:namedview><defs
     id="defs1" /><g
     inkscape:label="Capa 1"
     inkscape:groupmode="layer"
     id="layer1"
     transform="translate(-14.938853,-20.203203)"><path
       id="path1"
       style="fill:#000000"
       d="m 65.321077,20.203418 c -4.249015,0.01161 -8.484519,0.486136 -12.730489,1.424202 -0.90109,0.199078 -1.527675,0.360286 -3.273185,0.841293 -3.97499,1.095381 -7.295553,2.543681 -11.940873,5.207951 -1.80913,1.037606 -6.159202,4.263865 -8.122502,6.024438 -4.60341,4.128062 -7.283234,7.865304 -9.474874,13.213664 -2.35566,5.74862 -3.710343,11.460196 -4.567163,19.254638 -0.36517,3.3217 -0.363883,11.58617 0.0021,13.73663 0.38428,2.25812 0.894648,5.152286 1.097608,6.224426 0.15167,0.80113 1.546355,7.016309 1.950785,8.693009 0.09966,0.41318 0.269525,1.137521 0.377755,1.609721 0.10823,0.472201 0.559316,2.403964 1.002006,4.29276 0.81405,3.4733 0.932304,3.99095 1.396814,6.11694 0.14186,0.64927 0.344685,1.56695 0.451135,2.03915 0.55863,2.47802 1.195857,6.12408 1.573547,9.00617 0.38659,2.94996 0.423852,5.12592 0.129192,7.54063 -0.22574,1.84994 -0.698529,6.28414 -1.084689,10.1756 -0.26491,2.66959 -0.733131,6.11901 -1.063501,7.83415 -0.50238,2.60812 -1.28836,9.08148 -1.29036,10.62467 -9e-4,0.75388 0.128158,1.10778 0.588078,1.61334 0.32409,0.35624 1.359631,1.5152 2.301151,2.57556 3.52176,3.96631 9.794042,10.1775 14.066842,13.92938 3.21273,2.82105 11.967818,9.36294 16.094108,12.02562 7.97847,5.14849 13.414646,7.60786 19.718176,8.92142 l 5.17e-4,5.2e-4 c 2.17958,0.45419 8.410187,0.56267 11.511442,0.2005 5.7349,-0.66974 7.851122,-1.40025 14.723132,-5.08186 3.936221,-2.1088 6.252961,-4.10202 7.337021,-6.31176 1.22312,-2.49323 1.1962,-3.0111 -0.40721,-7.85637 -1.03257,-3.12024 -1.07795,-3.4911 -0.63046,-5.17229 0.3744,-1.40662 0.9399,-2.24387 2.26963,-3.36104 2.45028,-2.0586 5.85867,-5.28556 6.5779,-6.22752 0.78205,-1.02421 3.19174,-5.55817 3.70571,-6.9727 0.15013,-0.41317 0.35292,-0.94419 0.45062,-1.18029 0.23531,-0.56859 0.75766,-2.27036 1.18649,-3.86385 0.19061,-0.7083 0.42843,-1.57752 0.52813,-1.93167 0.0997,-0.35415 0.37512,-1.36822 0.61237,-2.2536 0.23724,-0.88537 0.49713,-1.851 0.57723,-2.14613 1.29702,-4.77709 2.78005,-8.83777 5.1356,-14.05909 1.24004,-2.74867 3.43231,-8.49986 3.68143,-9.65832 0.38499,-1.7904 0.36665,-7.29337 -0.032,-9.57254 -0.17756,-1.01499 -0.56423,-2.65058 -0.85886,-3.63492 -1.70213,-5.686792 -1.54218,-11.500921 0.4656,-16.948841 1.35692,-3.681886 1.45969,-4.121835 1.79679,-7.666715 0.28526,-2.9997 0.0948,-4.68845 -0.79892,-7.09104 -0.29613,-0.79608 -0.58805,-1.616555 -0.64905,-1.823145 -0.10481,-0.35498 0.69444,-0.377108 14.56293,-0.397908 8.07068,-0.01214 16.65426,-0.0883 19.07429,-0.169499 l 4.39973,-0.147795 1.67949,-0.795817 c 0.92351,-0.43785 1.71733,-0.796333 1.76423,-0.796333 0.0469,0 0.59526,-0.230504 1.21853,-0.512114 0.62326,-0.28162 2.63042,-1.161169 4.46019,-1.954919 1.82978,-0.79376 3.90693,-1.708711 4.61626,-2.032951 0.70934,-0.32424 1.51176,-0.659691 1.78284,-0.745691 0.27108,-0.08604 0.45894,-0.258346 0.41754,-0.382406 -0.0414,-0.12406 -3.40295,-1.525775 -7.47034,-3.115055 -4.06738,-1.58927 -7.69987,-3.025043 -8.07186,-3.190503 -0.56626,-0.25182 -4.37871,-0.300757 -23.4239,-0.300757 h -22.74796 l -0.47232,-1.163753 c -1.60763,-3.96093 -9.08127,-14.211266 -13.21367,-18.122925 -5.92743,-5.610804 -12.245762,-9.506567 -19.954332,-12.303642 -1.65927,-0.602069 -6.952294,-2.167134 -8.048604,-2.379699 -0.29513,-0.05722 -1.261259,-0.258132 -2.146639,-0.446485 -4.2997,-0.914714 -8.56209,-1.366051 -12.811105,-1.354439 z M 184.02546,39.146965 c -0.15835,0.10634 -1.49603,2.073219 -2.97243,4.371309 -2.13535,3.32375 -2.62987,4.232409 -2.41691,4.441589 0.14724,0.14463 1.08895,0.798168 2.09238,1.452108 1.00342,0.65394 1.96906,1.188294 2.14613,1.187524 0.18287,-8e-4 1.51307,-1.856958 3.07888,-4.296378 3.06786,-4.77952 3.00415,-4.495372 1.23093,-5.512842 -0.54063,-0.31021 -1.40768,-0.850393 -1.92701,-1.200443 -0.6402,-0.43153 -1.03676,-0.573937 -1.23197,-0.442867 z m 12.7677,3.432865 c -0.40372,0.24951 -10.79524,10.819619 -10.88564,11.072709 -0.0436,0.12218 0.72712,1.032562 1.71255,2.023132 0.98543,0.99057 1.89518,1.801441 2.02158,1.801441 0.32797,0 11.04791,-10.903957 11.04791,-11.237557 0,-0.46207 -3.59968,-3.843115 -3.8964,-3.659725 z M 39.587248,45.242716 c 0.934282,-0.0017 1.865285,0.05425 2.407605,0.168466 4.31608,0.91127 7.757855,3.79745 9.321395,7.81606 0.1345,0.3457 0.291229,0.628385 0.348299,0.628385 0.0571,0 0.244979,-0.356126 0.417029,-0.791166 1.31531,-3.32557 4.111385,-5.990082 7.526155,-7.172172 1.49637,-0.51799 2.266358,-0.63743 4.117578,-0.63872 1.82959,-0.002 2.482272,0.09871 4.049882,0.620117 1.85808,0.61809 3.338632,1.554109 4.822962,3.048909 1.44278,1.45294 2.370866,2.924986 2.998266,4.756816 0.78858,2.30248 0.890378,4.676041 0.322978,7.538041 -1.13849,5.74281 -4.99576,11.889364 -11.41274,18.186487 -2.35112,2.30722 -3.847447,3.624023 -6.614067,5.820833 -2.13709,1.69695 -6.019319,4.509495 -6.222359,4.507735 -0.0282,-2.6e-4 -0.650614,-0.402769 -1.382344,-0.894519 v 5.17e-4 c -0.73173,-0.49175 -1.510081,-1.026845 -1.729611,-1.189075 -1.1243,-0.83089 -3.09357,-2.317542 -3.33778,-2.519743 -0.15281,-0.12655 -0.528195,-0.429443 -0.834575,-0.673343 -3.68679,-2.93509 -7.523301,-6.712345 -10.414351,-10.253638 -1.03668,-1.26982 -2.445212,-3.302579 -3.343982,-4.825029 -2.9658,-5.02381 -4.164122,-10.183379 -3.308842,-14.249259 0.49203,-2.33899 1.631627,-4.414563 3.408577,-6.207373 1.82847,-1.84479 3.890876,-2.966682 6.433716,-3.500562 0.55445,-0.11642 1.491926,-0.176067 2.426209,-0.177767 z m 151.550952,15.561325 -0.061,2.455147 c -0.0335,1.35036 -0.0124,2.582374 0.0475,2.738334 0.0884,0.23076 1.96888,0.273293 10.04176,0.227893 l 9.93273,-0.05581 v -2.68304 -2.682523 h -9.98027 z m 0.29404,9.364286 c -0.26067,-0.08859 -3.83401,3.378824 -3.83801,3.723804 -0.001,0.12066 2.43781,2.655074 5.41983,5.632214 2.98203,2.97713 5.51663,5.415307 5.63221,5.419307 0.28228,0.0089 3.7605,-3.463602 3.7605,-3.754292 0,-0.25107 -10.59665,-10.892623 -10.97453,-11.021033 z m -7.41143,5.76709 c -0.32237,0 -4.79506,2.111754 -4.79506,2.263944 0,0.11541 0.63055,1.465352 3.02566,6.479708 1.27528,2.66991 1.51128,3.036214 1.86965,2.898014 1.17136,-0.45171 4.54043,-2.109786 4.54443,-2.236556 0.003,-0.08061 -0.65471,-1.529315 -1.46038,-3.219441 -0.80568,-1.69013 -1.79277,-3.773315 -2.19366,-4.629175 -0.40089,-0.85586 -0.84665,-1.556494 -0.99064,-1.556494 z M 88.88398,78.80811 c 1.874244,0.0034 3.760041,0.146187 4.809526,0.426847 4.29499,1.1486 7.783244,3.941885 8.819614,7.062101 0.31174,0.93857 0.32666,1.285585 0.10697,2.477885 -0.61613,3.34384 -2.728438,5.648799 -6.458518,7.048149 -1.73361,0.65038 -2.498123,0.868998 -4.337203,1.241268 -2.1814,0.44155 -5.063413,0.409662 -6.823873,-0.07545 -3.19894,-0.881491 -6.310384,-2.522492 -8.015014,-4.227132 -2.34884,-2.34884 -3.084328,-6.337483 -1.541508,-8.360213 1.30538,-1.711436 5.781585,-4.378643 8.69921,-5.183663 1.00385,-0.276995 2.866553,-0.413153 4.740796,-0.409794 z m 38.52581,4.854484 c 0.94239,0 1.23573,0.45305 1.22163,1.88929 -0.01,0.96591 -0.18063,1.561242 -0.81338,2.832902 -1.34736,2.70778 -1.40486,2.983892 -1.37046,6.574792 0.0276,2.876151 -0.02,3.37526 -0.39067,4.09174 -0.24162,0.46701 -0.59763,0.833379 -0.832,0.856279 -0.68121,0.06646 -4.36287,-1.585036 -5.57692,-2.501656 -0.62579,-0.47248 -1.40906,-1.215492 -1.74098,-1.651062 -0.55318,-0.72595 -0.60354,-0.945338 -0.60306,-2.632398 8.2e-4,-2.87162 0.33201,-3.71878 2.14664,-5.48907 2.35934,-2.30167 5.70487,-3.970817 7.9592,-3.970817 z m -19.08617,45.331086 c 1.07023,-0.0177 2.18812,-0.0135 3.329,0.0145 4.82892,0.11825 5.41703,0.2841 7.33288,2.07222 1.83095,1.70888 1.96318,2.36866 1.1281,5.62343 -0.57269,2.23213 -0.67143,2.54338 -1.14463,3.60753 -0.69992,1.57397 -4.11758,4.31879 -5.88492,4.72633 -0.90639,0.20903 -7.79841,0.27237 -8.6589,0.0796 -1.9012,-0.42596 -5.530354,-2.06343 -7.275524,-3.28249 -0.48433,-0.33832 -1.798239,-1.45321 -2.919719,-2.47788 -2.00066,-1.82796 -3.004984,-3.14943 -3.004984,-3.95428 0,-0.61478 3.17139,-3.24963 5.36608,-4.45813 0.72777,-0.40074 1.100951,-0.51447 4.077787,-1.24075 1.66479,-0.40616 4.44415,-0.65693 7.65483,-0.71003 z" /></g></svg>
