<?xml version="1.0" encoding="UTF-8" standalone="no"?>
<!-- Created with Inkscape (http://www.inkscape.org/) -->

<svg
   version="1.1"
   id="svg1"
   width="492"
   height="445.33334"
   viewBox="0 0 492 445.33334"
   xmlns="http://www.w3.org/2000/svg"
   xmlns:svg="http://www.w3.org/2000/svg">
  <defs
     id="defs1" />
  <g
     id="g1">
    <path
       style="fill:#fb742d;fill-opacity:1"
       d="m 47.570636,357.11476 173.789424,0.65851 157.64167,-0.50701 c 0,0 -137.24078,-235.7897 -137.39203,-236.0731 0,0 -108.58973,186.80768 -108.53649,187.14877 L 75.958224,308.18792 C 131.13795,213.08 130.8826,213.0122 241.68626,22.974002 371.40929,244.9816 371.75009,244.6098 464.90899,405.35459 c -0.31388,0.008 0.11368,0.41932 -217.03889,0.15714 -228.00745,-0.27528 -227.710333,0.0453 -227.710333,0.0453 27.62396,-48.39071 27.281113,-48.41221 27.410869,-48.44227 z"
       id="path1" />
    <path
       style="display:inline;fill:#fb742d;fill-opacity:1;stroke-width:0.193894"
       d="m 57.317932,349.54775 c -0.429417,-0.17874 -0.436261,-0.23603 -0.436261,-3.65417 0,-2.99048 0.04437,-3.50954 0.319965,-3.7387 0.232932,-0.19371 1.140356,-0.28317 3.335419,-0.3288 1.658494,-0.0345 3.300768,-0.009 3.649474,0.0562 0.543089,0.10185 0.664594,0.2325 0.847211,0.91065 0.124487,0.46222 0.187215,1.94807 0.150713,3.57012 -0.04365,1.94695 -0.1376,2.85367 -0.313965,3.02991 -0.183712,0.18368 -1.177433,0.26295 -3.683982,0.29392 -1.887816,0.0233 -3.628726,-0.0393 -3.868664,-0.13922 z m 14.154234,-0.007 c -0.43626,-0.17532 -0.43626,-0.17532 -0.43626,-15.67924 0,-13.83593 0.03269,-15.53667 0.304696,-15.80858 0.270673,-0.27068 1.697439,-0.3047 12.781126,-0.3047 6.862041,0 12.614443,0.053 12.783138,0.11766 0.264117,0.10132 0.30669,0.60744 0.30669,3.6452 0,2.4851 -0.0688,3.59627 -0.23268,3.76018 -0.173707,0.17371 -2.370925,0.2334 -8.676728,0.23554 -6.412361,0.002 -9.428911,0.006 -9.428911,0.006 0,0 0.01439,0.53267 -0.03889,3.07168 -0.03647,1.7408 -0.02048,3.09595 -0.02048,3.09595 0,0 1.671176,0.0277 7.369544,0.0277 6.697909,0 6.970846,0.0144 7.344216,0.3878 0.356162,0.35616 0.387796,0.64632 0.387796,3.55698 0,2.82402 -0.03862,3.20414 -0.354599,3.49008 -0.31569,0.28571 -1.097549,0.3209 -7.130918,0.3209 -5.819298,0 -7.68815,0.0336 -7.68815,0.0336 0,0 -0.01633,0.76798 -0.01633,1.22675 0,0.45875 -0.03474,1.5117 -0.03474,1.5117 0,0 2.1133,0.0138 9.310967,0.0138 7.24186,-1e-5 8.405191,-0.22527 8.779029,0.0367 0.417237,0.29224 0.430925,0.40899 0.430925,3.67715 0,3.13863 -0.02623,3.3894 -0.375041,3.57604 -0.247913,0.13275 -4.536491,0.19654 -12.651556,0.18842 -6.835473,-0.007 -12.469891,-0.09 -12.712793,-0.18765 z m 44.740984,-0.0162 c -0.79982,-0.0659 -2.02134,-0.26038 -2.71451,-0.43216 -0.69318,-0.17173 -1.69658,-0.4742 -2.22979,-0.67205 -0.53321,-0.19783 -1.49298,-0.61229 -2.13282,-0.92101 -0.83524,-0.40297 -1.74202,-1.13667 -3.21494,-2.60127 -1.61576,-1.60661 -2.24466,-2.39564 -2.96045,-3.71426 -0.49986,-0.92086 -1.13568,-2.40416 -1.41289,-3.29621 -0.44477,-1.43111 -0.50547,-1.96398 -0.51605,-4.53029 -0.0108,-2.75394 0.16663,-3.29964 0.59697,-4.76438 0.30284,-1.03077 0.9611,-2.46045 1.39151,-3.19924 0.4304,-0.73882 1.32816,-1.95836 1.995,-2.71011 0.66684,-0.75175 1.75413,-1.78382 2.41619,-2.29348 0.66208,-0.50966 1.89109,-1.26355 2.73115,-1.67531 0.84006,-0.41176 1.78165,-0.80582 2.09242,-0.87568 0.31078,-0.0699 0.91407,-0.2437 1.34065,-0.38625 0.42656,-0.14263 1.69171,-0.30251 2.81144,-0.35543 1.11975,-0.053 2.73391,-0.0284 3.58703,0.0544 0.85314,0.0828 2.11831,0.30409 2.81146,0.49164 0.69318,0.18754 1.34757,0.40819 1.45422,0.4903 0.1067,0.0821 0.41201,0.21471 0.67862,0.29469 0.2666,0.0799 1.07364,0.4932 1.7934,0.91829 0.71978,0.42507 1.67955,1.10258 2.13284,1.50552 0.82414,0.73265 0.82414,0.73265 -0.21916,3.90432 -0.5738,1.74441 -1.165,3.41162 -1.31375,3.70487 -0.15772,0.31091 -0.43041,0.53321 -0.65411,0.53321 -0.21101,0 -1.0524,-0.56044 -1.86974,-1.24544 -0.81736,-0.68498 -2.06032,-1.52645 -2.76215,-1.86991 -0.82557,-0.40403 -1.80046,-0.69441 -2.76154,-0.82251 -1.02045,-0.13598 -1.9372,-0.13472 -2.92844,0.005 -0.84894,0.1191 -1.95425,0.4465 -2.68495,0.79523 -0.68309,0.326 -1.78445,1.08364 -2.44748,1.68366 -0.89517,0.81008 -1.39386,1.47203 -1.93722,2.57143 -0.68457,1.38514 -0.73154,1.59363 -0.72894,3.23563 0.002,1.6294 0.0546,1.86164 0.72715,3.24269 0.4752,0.97596 1.00776,1.73051 1.54836,2.19386 0.4532,0.38844 1.26028,0.99092 1.79347,1.33884 0.53321,0.34791 1.54277,0.82215 2.24345,1.05386 0.95343,0.31529 1.74456,0.4213 3.1442,0.4213 1.2981,0 2.09465,-0.0967 2.6039,-0.31568 0.40351,-0.1737 1.29575,-0.58807 1.98275,-0.92098 0.68699,-0.33294 1.60315,-0.95156 2.03589,-1.37475 0.43274,-0.42316 1.04369,-0.9685 1.35768,-1.21183 0.31398,-0.24333 0.68255,-0.44242 0.81907,-0.44242 0.13653,0 0.38503,0.26462 0.55229,0.58805 0.16724,0.32343 0.4784,1.17415 0.69145,1.89046 0.21305,0.71633 0.66551,2.15536 1.00551,3.19787 0.46618,1.42942 0.5684,1.97767 0.41572,2.22979 -0.11137,0.18387 -0.80749,0.74762 -1.54701,1.25275 -0.7395,0.50517 -1.69356,1.08749 -2.12012,1.29407 -0.42656,0.20658 -1.12458,0.52178 -1.55114,0.70043 -0.42658,0.17856 -1.34272,0.46004 -2.03589,0.62531 -0.69318,0.16526 -2.00196,0.35293 -2.90841,0.417 -0.90646,0.0641 -2.30249,0.0627 -3.10229,-0.004 z m 28.21152,0.0201 c -0.53321,-0.0815 -1.56381,-0.28881 -2.29023,-0.46055 -0.72643,-0.17173 -1.77345,-0.52861 -2.32672,-0.79308 -0.55329,-0.26448 -1.44001,-0.81179 -1.97052,-1.21625 -0.53048,-0.40447 -1.37667,-1.24697 -1.8804,-1.87223 -0.50371,-0.62527 -1.13879,-1.69375 -1.4113,-2.37444 -0.27248,-0.68067 -0.62866,-2.00959 -0.79148,-2.95312 -0.18919,-1.0963 -0.31144,-3.21214 -0.33867,-5.86164 -0.0235,-2.28035 0.0623,-5.10588 0.19056,-6.27893 0.12826,-1.17305 0.40223,-2.62033 0.60885,-3.21614 0.20662,-0.59583 0.51586,-1.35443 0.68721,-1.6858 0.17137,-0.33135 0.74737,-1.12613 1.28002,-1.76619 0.53265,-0.64005 1.34,-1.41564 1.79412,-1.72355 0.4541,-0.3079 1.17465,-0.74107 1.60121,-0.96261 0.42658,-0.22155 1.21185,-0.54579 1.74504,-0.72053 0.53321,-0.17479 2.191,-0.4428 3.68398,-0.59565 2.12057,-0.21711 3.20242,-0.23319 4.9443,-0.0735 1.22638,0.11245 2.73183,0.37272 3.34544,0.57838 0.6136,0.20567 1.22793,0.37393 1.36519,0.37393 0.13724,0 0.94398,0.43597 1.79274,0.96882 0.93095,0.58446 1.87102,1.37295 2.36947,1.98741 0.45444,0.56022 1.05025,1.49467 1.32403,2.07654 0.27378,0.58187 0.71139,1.86049 0.97245,2.84139 0.44637,1.67706 0.47553,2.09964 0.48888,7.08557 0.0108,4.115 -0.0566,5.68813 -0.30179,7.02603 -0.17371,0.94811 -0.58547,2.37116 -0.91483,3.16233 -0.47274,1.13559 -0.88998,1.73455 -1.98165,2.84467 -1.02448,1.04181 -1.75965,1.58736 -2.83702,2.10525 -0.79981,0.38447 -2.02134,0.8503 -2.7145,1.0352 -0.69317,0.18488 -1.95834,0.40328 -2.81146,0.48533 -0.85314,0.0821 -2.24917,0.14515 -3.10231,0.14048 -0.85312,-0.005 -1.9874,-0.0754 -2.52061,-0.157 z m 6.95967,-8.34327 c 0.75263,-0.31195 1.16815,-0.63806 1.53615,-1.20562 0.27746,-0.42789 0.57346,-1.18043 0.65776,-1.67232 0.0842,-0.4919 0.15323,-2.9884 0.15323,-5.5478 0,-4.55121 -0.0108,-4.67379 -0.47319,-5.57961 -0.26027,-0.50939 -0.76136,-1.14595 -1.11352,-1.41454 -0.43935,-0.33512 -1.14276,-0.57682 -2.2413,-0.77014 -0.88055,-0.15503 -2.08089,-0.2821 -2.66741,-0.28253 -0.58653,-4e-4 -1.67718,0.14442 -2.42367,0.32169 -0.74651,0.1773 -1.60821,0.49672 -1.91492,0.70973 -0.30671,0.21301 -0.71965,0.75355 -0.91768,1.2012 -0.21828,0.49348 -0.43703,1.68379 -0.55558,3.02323 -0.1076,1.21511 -0.19477,3.29994 -0.19384,4.63296 6.5e-4,1.34871 0.12395,3.00053 0.27736,3.72431 0.15161,0.71534 0.462,1.55271 0.68979,1.86082 0.2278,0.30809 0.8657,0.74384 1.41757,0.96833 0.55188,0.22449 1.30878,0.44794 1.68203,0.49655 0.37324,0.0487 1.66341,0.0598 2.86704,0.025 1.71154,-0.0498 2.41321,-0.15664 3.22011,-0.49114 z M 57.131633,340.2793 c -0.178737,-0.11353 -0.241088,-2.77942 -0.261261,-11.17126 -0.02174,-9.05339 0.02012,-11.05164 0.234764,-11.18764 0.143708,-0.0911 1.836944,-0.16688 3.76277,-0.1685 2.721033,-0.002 3.585399,0.0584 3.87788,0.27213 0.364766,0.26663 0.37637,0.60797 0.37637,11.06736 0,10.45924 -0.01078,10.80071 -0.37637,11.06764 -0.292715,0.21422 -1.154692,0.27479 -3.87788,0.27249 -1.925826,-10e-4 -3.607152,-0.0701 -3.736273,-0.15215 z"
       id="path1-8" />
  </g>
</svg>
