<?xml version="1.0" encoding="UTF-8" standalone="no"?>
<!-- Created with Inkscape (http://www.inkscape.org/) -->

<svg
   version="1.1"
   id="svg1"
   width="493.52594"
   height="421.94708"
   viewBox="0 0 493.52594 421.94708"
   sodipodi:docname="!ECOlogobig.svg"
   inkscape:export-filename="!ECOlogobig.png"
   inkscape:export-xdpi="96"
   inkscape:export-ydpi="96"
   xmlns:inkscape="http://www.inkscape.org/namespaces/inkscape"
   xmlns:sodipodi="http://sodipodi.sourceforge.net/DTD/sodipodi-0.dtd"
   xmlns="http://www.w3.org/2000/svg"
   xmlns:svg="http://www.w3.org/2000/svg">
  <sodipodi:namedview
     id="namedview1"
     pagecolor="#505050"
     bordercolor="#eeeeee"
     borderopacity="1"
     inkscape:showpageshadow="0"
     inkscape:pageopacity="0"
     inkscape:pagecheckerboard="0"
     inkscape:deskcolor="#505050"
     showguides="true">
    <inkscape:page
       x="0"
       y="0"
       width="493.52594"
       height="421.94708"
       id="page1"
       margin="0"
       bleed="0" />
  </sodipodi:namedview>
  <defs
     id="defs1" />
  <g
     id="g3"
     transform="matrix(1.1052956,0,0,1.1052956,486.69064,-22.612228)"
     style="display:none;fill:#280b0b">
    <path
       style="display:inline;opacity:0.586;fill:#280b0b;fill-opacity:1"
       d="m -239.46294,354.38215 c 0,0 157.716722,0.0913 157.502122,0.30671 l -135.742832,-236.93127 7.9e-4,-97.281776 222.6283599,381.332926 -244.3046099,0.007 z"
       id="path1-82"
       sodipodi:nodetypes="ccccccc" />
    <path
       style="display:inline;opacity:0.586;fill:#280b0b;fill-opacity:1"
       d="m -195.9425,354.37872 c 0,0 -157.71672,0.0913 -157.50212,0.30671 l 135.74283,-236.93127 -7.9e-4,-97.28179 -222.62836,381.33294 244.30461,0.007 z"
       id="path1-82-8"
       sodipodi:nodetypes="ccccccc" />
  </g>
  <g
     id="g1"
     transform="matrix(1.1052956,0,0,1.1052956,-17.809358,-24.612228)"
     inkscape:export-filename="g1.png"
     inkscape:export-xdpi="96"
     inkscape:export-ydpi="96">
    <path
       style="fill:#fb742d;fill-opacity:1"
       d="M 43.751623,356.27643 374.49172,356.50816 238.66052,119.65464 157.97321,260.53662 99.824303,260.23309 239.4816,22.267553 462.62311,404.01799 16.112756,403.61371 Z"
       id="path1"
       sodipodi:nodetypes="ccccccccc" />
    <path
       style="display:inline;fill:#fb742d;fill-opacity:1;stroke-width:0.435259"
       d="m 65.146086,345.04486 c -0.963967,-0.40125 -0.979332,-0.52985 -0.979332,-8.203 0,-6.71312 0.0996,-7.87832 0.718269,-8.39274 0.522892,-0.43486 2.559907,-0.63568 7.487454,-0.7381 3.723042,-0.0775 7.409669,-0.0203 8.192456,0.12615 1.219143,0.22865 1.491904,0.52193 1.901845,2.04426 0.279453,1.03761 0.420269,4.37308 0.338326,8.01431 -0.09798,4.37059 -0.308887,6.40602 -0.704797,6.80166 -0.412404,0.41231 -2.64314,0.59026 -8.269922,0.65979 -4.237828,0.0522 -8.145879,-0.0882 -8.6845,-0.31252 z m 31.773884,-0.0157 c -0.979336,-0.39356 -0.979336,-0.39356 -0.979336,-35.19727 0,-31.05932 0.07334,-34.8772 0.683986,-35.48757 0.60762,-0.60765 3.81049,-0.68402 28.69148,-0.68402 15.40413,0 28.31732,0.11896 28.69602,0.26412 0.59289,0.22745 0.68846,1.3636 0.68846,8.18288 0,5.57861 -0.15445,8.073 -0.52233,8.44095 -0.38994,0.38995 -5.32233,0.52396 -19.47779,0.52876 -14.39467,0.005 -21.16633,0.0136 -21.16633,0.0136 0,0 0.0324,1.19574 -0.0872,6.8954 -0.0819,3.9078 -0.046,6.94988 -0.046,6.94988 0,0 3.75151,0.0622 16.5434,0.0622 15.03567,0 15.64836,0.0324 16.48651,0.87054 0.79954,0.79952 0.87054,1.45087 0.87054,7.98482 0,6.33945 -0.0867,7.19275 -0.79601,7.83464 -0.70868,0.64137 -2.46381,0.72038 -16.00771,0.72038 -13.06335,0 -17.25861,0.0754 -17.25861,0.0754 0,0 -0.0366,1.72398 -0.0366,2.75383 0,1.02983 -0.0779,3.39352 -0.0779,3.39352 0,0 4.74399,0.0309 20.90155,0.0309 16.25676,-2e-5 18.86824,-0.50568 19.70743,0.0824 0.93663,0.65603 0.96737,0.9181 0.96737,8.25459 0,7.04569 -0.0589,7.60863 -0.8419,8.0276 -0.55654,0.29801 -10.18367,0.4412 -28.40062,0.42297 -15.34447,-0.0157 -27.99282,-0.20204 -28.53809,-0.42123 z m 100.436,-0.0364 c -1.79546,-0.14794 -4.53758,-0.58451 -6.09363,-0.97014 -1.55607,-0.38552 -3.80854,-1.06451 -5.00551,-1.50864 -1.19695,-0.44409 -3.35149,-1.37449 -4.78779,-2.06752 -1.87499,-0.90459 -3.91056,-2.55161 -7.21702,-5.8394 -3.62711,-3.60657 -5.03889,-5.37781 -6.64571,-8.33789 -1.12211,-2.06717 -2.54942,-5.39692 -3.1717,-7.39944 -0.99844,-3.2126 -1.1347,-4.4088 -1.15845,-10.16973 -0.0243,-6.18214 0.37406,-7.40714 1.3401,-10.69525 0.67981,-2.3139 2.15751,-5.52329 3.1237,-7.18174 0.96619,-1.65854 2.9815,-4.39619 4.47844,-6.08376 1.49694,-1.68754 3.93774,-4.00435 5.42394,-5.14846 1.48628,-1.1441 4.24519,-2.83646 6.13097,-3.76079 1.88579,-0.92433 3.99952,-1.80893 4.69715,-1.96576 0.69763,-0.15691 2.05192,-0.54706 3.00952,-0.86707 0.95756,-0.32018 3.7976,-0.67908 6.31121,-0.79788 2.51366,-0.11898 6.13718,-0.0638 8.05229,0.12213 1.91515,0.18587 4.75525,0.68262 6.31124,1.10364 1.55608,0.421 3.02508,0.91632 3.26449,1.10065 0.23952,0.1843 0.92489,0.48198 1.52338,0.66152 0.59848,0.17937 2.41015,1.10715 4.02588,2.06142 1.61579,0.9542 3.77032,2.47508 4.78786,3.37962 1.85007,1.64469 1.85007,1.64469 -0.49197,8.76455 -1.28808,3.91591 -2.61522,7.65852 -2.94913,8.31682 -0.35406,0.69792 -0.9662,1.19695 -1.46837,1.19695 -0.47369,0 -2.36246,-1.25808 -4.19726,-2.7958 -1.83485,-1.53765 -4.62508,-3.42662 -6.20057,-4.19763 -1.85325,-0.90699 -4.04172,-1.55883 -6.19918,-1.8464 -2.29074,-0.30525 -4.3487,-0.30241 -6.57386,0.0112 -1.90572,0.26735 -4.38698,1.00233 -6.02725,1.78515 -1.53345,0.73181 -4.0058,2.43259 -5.49419,3.77954 -2.00951,1.81848 -3.12898,3.30446 -4.34875,5.77242 -1.53675,3.10941 -1.64218,3.57743 -1.63633,7.26345 0.005,3.65773 0.12255,4.17908 1.63231,7.2793 1.06676,2.19084 2.26227,3.8847 3.47583,4.92484 1.01734,0.87198 2.82911,2.22446 4.02602,3.00546 1.19698,0.78102 3.46327,1.8456 5.03617,2.36574 2.14031,0.70778 3.91624,0.94575 7.05821,0.94575 2.91401,0 4.70213,-0.21709 5.84532,-0.70864 0.90581,-0.38993 2.90874,-1.32012 4.45093,-2.06746 1.54218,-0.74738 3.59881,-2.13608 4.57024,-3.08607 0.97143,-0.94994 2.34292,-2.17412 3.04776,-2.72036 0.70482,-0.54621 1.53222,-0.99315 1.83866,-0.99315 0.30651,0 0.86435,0.59402 1.23982,1.32007 0.37543,0.72605 1.07391,2.63576 1.55218,4.24375 0.47826,1.60805 1.49396,4.83844 2.2572,7.17868 1.04649,3.20883 1.27596,4.43956 0.93323,5.00552 -0.25002,0.41276 -1.81269,1.67829 -3.47278,2.81222 -1.66006,1.13401 -3.80175,2.44123 -4.7593,2.90496 -0.95758,0.46375 -2.5245,1.1713 -3.48206,1.57235 -0.95759,0.40083 -3.01419,1.03272 -4.57023,1.40374 -1.55607,0.37097 -4.49408,0.79225 -6.52891,0.93607 -2.03484,0.1439 -5.16869,0.14075 -6.9641,-0.01 z m 63.33012,0.0451 c -1.19698,-0.18295 -3.51048,-0.64832 -5.14119,-1.03387 -1.63072,-0.38549 -3.9811,-1.18662 -5.22308,-1.78033 -1.24206,-0.59371 -3.23259,-1.82233 -4.42349,-2.73028 -1.19085,-0.90796 -3.09039,-2.79924 -4.22119,-4.20283 -1.13074,-1.40362 -2.55639,-3.80218 -3.16814,-5.33023 -0.61167,-1.52797 -1.41121,-4.51119 -1.77672,-6.62925 -0.42472,-2.46101 -0.69914,-7.21071 -0.76027,-13.1584 -0.0527,-5.119 0.13986,-11.46183 0.42778,-14.09514 0.28793,-2.6333 0.90292,-5.8822 1.36678,-7.21969 0.4638,-1.33754 1.15801,-3.04046 1.54266,-3.78435 0.3847,-0.74382 1.67772,-2.52796 2.87341,-3.9648 1.19572,-1.4368 3.00809,-3.17786 4.02751,-3.86906 1.01936,-0.69119 2.63689,-1.6636 3.59445,-2.1609 0.95761,-0.49735 2.7204,-1.22521 3.91733,-1.61747 1.19697,-0.39237 4.91842,-0.99403 8.26989,-1.33714 4.76033,-0.48738 7.18891,-0.52346 11.09914,-0.16499 2.75302,0.25242 6.1325,0.83668 7.50995,1.29834 1.37743,0.46171 2.7565,0.83943 3.06462,0.83943 0.30808,0 2.11909,0.9787 4.02441,2.17484 2.08983,1.31201 4.20011,3.08205 5.31906,4.4614 1.02012,1.2576 2.35762,3.35528 2.97222,4.66148 0.61459,1.30621 1.59695,4.17649 2.18299,6.37845 1.00201,3.76471 1.06748,4.71334 1.09745,15.90592 0.0242,9.23747 -0.12706,12.7689 -0.67747,15.77225 -0.38995,2.12835 -1.31427,5.32285 -2.05364,7.0989 -1.06122,2.54921 -1.99784,3.89376 -4.44847,6.38581 -2.29977,2.33868 -3.95012,3.56335 -6.36864,4.72592 -1.79543,0.86308 -4.53756,1.90879 -6.09358,2.32385 -1.55605,0.41503 -4.39616,0.9053 -6.31125,1.08948 -1.91517,0.1843 -5.04902,0.32585 -6.96419,0.31535 -1.9151,-0.0112 -4.46137,-0.16925 -5.65833,-0.35243 z m 15.62328,-18.72921 c 1.68953,-0.70027 2.62231,-1.43233 3.4484,-2.70642 0.62285,-0.96052 1.28734,-2.64986 1.47657,-3.75408 0.18901,-1.10421 0.34398,-6.70845 0.34398,-12.45386 0,-10.21672 -0.0243,-10.49188 -1.06224,-12.52529 -0.58427,-1.14349 -1.70914,-2.57247 -2.49968,-3.17541 -0.98625,-0.7523 -2.56529,-1.29487 -5.03134,-1.72885 -1.97668,-0.34801 -4.67124,-0.63325 -5.98788,-0.63422 -1.31667,-8.1e-4 -3.76499,0.32421 -5.44071,0.72215 -1.67582,0.398 -3.61017,1.11504 -4.29869,1.59321 -0.68851,0.47818 -1.61548,1.69161 -2.06004,2.6965 -0.48999,1.10777 -0.98106,3.77983 -1.24719,6.78663 -0.24153,2.72773 -0.43721,7.40782 -0.43515,10.40022 0.002,3.02764 0.27826,6.73569 0.62264,8.36045 0.34035,1.60584 1.03711,3.48558 1.54847,4.17725 0.51136,0.6916 1.94336,1.66979 3.1822,2.17373 1.23887,0.50394 2.938,1.00555 3.77586,1.11467 0.83789,0.10932 3.73411,0.13425 6.43605,0.0561 3.84211,-0.11179 5.41725,-0.35163 7.2286,-1.10254 z m -211.581493,-2.0699 c -0.401234,-0.25486 -0.541202,-6.23933 -0.586487,-25.07761 -0.04879,-20.32332 0.04516,-24.80907 0.527006,-25.11435 0.322601,-0.20451 4.123631,-0.37464 8.446785,-0.37826 6.108264,-0.005 8.04862,0.1311 8.70519,0.61087 0.818838,0.59855 0.844888,1.36479 0.844888,24.84438 0,23.47923 -0.0242,24.24578 -0.844888,24.84498 -0.657095,0.48088 -2.59209,0.61686 -8.70519,0.61168 -4.323154,-0.003 -8.09745,-0.15734 -8.387304,-0.34153 z"
       id="path1-8" />
  </g>
</svg>
